<svg width="731" height="97" viewBox="0 0 731 97" fill="none" xmlns="http://www.w3.org/2000/svg">
    <g filter="url(#filter0_d_2087_1604)">
        <path d="M12.8574 61.772C10.8342 60.9387 9.04172 59.6299 7.63182 57.9566C6.11955 56.1211 4.98024 54.008 4.27783 51.7359C3.42832 48.9837 3.02025 46.1143 3.06882 43.2344V36.9307C3.02664 34.2142 3.4352 31.5096 4.27783 28.9268C4.99357 26.7356 6.13318 24.7066 7.63182 22.9551C9.06195 21.324 10.8506 20.0464 12.8574 19.2227C15.0243 18.3442 17.3446 17.9071 19.6826 17.937C21.6949 17.9187 23.6968 18.2269 25.6103 18.8496C27.3731 19.4267 29.0131 20.3266 30.4468 21.5035C31.8501 22.6654 33.0154 24.0878 33.8784 25.6924C34.7784 27.3771 35.3352 29.2237 35.5166 31.1251H28.5747C28.1634 29.3094 27.2116 27.661 25.8447 26.3971C24.4404 25.0704 22.3863 24.407 19.6826 24.4068C18.341 24.3532 17.0049 24.6054 15.7752 25.1442C14.5454 25.6831 13.4544 26.4945 12.5844 27.5172C10.8164 29.5904 9.93243 32.7283 9.93259 36.9308V43.2345C9.93259 47.9352 10.8165 51.3359 12.5844 53.4366C13.4477 54.4699 14.5365 55.2914 15.7671 55.8378C16.9977 56.3842 18.3372 56.6411 19.6826 56.5885C22.3857 56.5885 24.4397 55.8972 25.8447 54.5148C27.173 53.2663 28.0967 51.6483 28.4965 49.8698H35.5166C35.1062 51.8669 34.41 53.7944 33.4497 55.5929C32.6025 57.1739 31.4646 58.5808 30.0957 59.7399C28.7397 60.8631 27.176 61.7085 25.4936 62.2282C23.6107 62.8013 21.6507 63.0811 19.6826 63.0578C17.3446 63.0879 15.0242 62.6507 12.8574 61.772Z" fill="white"/>
        <path d="M44.6421 18.5176H69.4458V24.9043H51.584V62.4771H44.6421L44.6421 18.5176Z" fill="white"/>
        <path d="M91.4409 63.0576C89.1029 63.0878 86.7825 62.6507 84.6157 61.772C82.5925 60.9386 80.8 59.6298 79.3901 57.9565C77.8778 56.1211 76.7385 54.008 76.0361 51.7358C75.1866 48.9837 74.7786 46.1143 74.8271 43.2344V36.9307C74.8271 30.7388 76.27 26.0249 79.1557 22.7891C82.042 19.5547 86.0069 17.9373 91.0507 17.937C96.0942 17.937 100.059 19.5405 102.946 22.7476C105.832 25.9551 107.275 30.7381 107.275 37.0967V42.6538H81.6908C81.7421 47.686 82.6391 51.2941 84.3817 53.478C85.2155 54.5434 86.29 55.3958 87.5172 55.9653C88.7443 56.5348 90.089 56.805 91.4408 56.7539C94.0927 56.7539 96.0297 56.0905 97.2518 54.7637C98.4303 53.5207 99.2286 51.9665 99.5526 50.2847H106.495C105.663 54.5977 103.973 57.8047 101.425 59.9058C98.5757 62.1069 95.0373 63.224 91.4409 63.0576ZM91.1289 24.2407C89.8372 24.1682 88.5458 24.3877 87.3507 24.8831C86.1556 25.3785 85.0876 26.137 84.226 27.1021C82.5879 29.0098 81.7428 32.2031 81.6909 36.6821H100.801C100.696 32.2031 99.8379 29.0098 98.227 27.1021C96.6142 25.1943 94.2482 24.2406 91.1289 24.2407Z" fill="white"/>
        <path d="M117.18 18.5176H124.122V36.9307H142.998V18.5176H149.94V62.4771H142.998V43.2344H124.122V62.4771H117.18V18.5176Z" fill="white"/>
        <path d="M176.459 63.0576C174.121 63.0878 171.801 62.6507 169.634 61.772C167.611 60.9386 165.818 59.6299 164.408 57.9565C162.896 56.1211 161.757 54.008 161.054 51.7358C160.205 48.9837 159.797 46.1143 159.845 43.2344V36.9307C159.845 30.7388 161.288 26.0249 164.174 22.7891C167.06 19.5547 171.025 17.9373 176.069 17.937C181.112 17.937 185.077 19.5405 187.964 22.7476C190.85 25.9551 192.293 30.7381 192.293 37.0967V42.6538H166.709C166.76 47.686 167.657 51.2941 169.4 53.478C170.234 54.5434 171.308 55.3958 172.535 55.9653C173.762 56.5348 175.107 56.805 176.459 56.7539C179.111 56.7539 181.048 56.0905 182.27 54.7637C183.448 53.5207 184.247 51.9665 184.571 50.2847H191.513C190.681 54.5977 188.991 57.8047 186.443 59.9058C183.594 62.1069 180.055 63.224 176.459 63.0576ZM176.147 24.2407C174.855 24.1682 173.564 24.3877 172.369 24.8831C171.174 25.3785 170.106 26.137 169.244 27.1021C167.606 29.0098 166.761 32.2031 166.709 36.6821H185.819C185.714 32.2031 184.856 29.0098 183.245 27.1021C181.632 25.1943 179.266 24.2406 176.147 24.2407Z" fill="white"/>
        <path d="M202.198 18.5176H208.36V25.8164C209.413 23.4992 211.07 21.5082 213.157 20.0523C215.377 18.6356 217.974 17.9269 220.606 18.02C222.674 17.9958 224.723 18.4203 226.612 19.2642C228.436 20.097 230.049 21.3302 231.331 22.8721C232.745 24.613 233.805 26.6136 234.451 28.7612C235.247 31.4098 235.629 34.1655 235.582 36.9307V43.2344C235.629 46.1495 235.248 49.0558 234.451 51.8604C233.816 54.1135 232.757 56.2248 231.331 58.0811C230.077 59.6827 228.459 60.9623 226.612 61.8135C224.723 62.6574 222.674 63.0819 220.606 63.0577C218.079 63.1419 215.592 62.4152 213.508 60.9839C211.608 59.6323 210.101 57.8006 209.14 55.6758V79.0655H202.198L202.198 18.5176ZM219.202 56.5884C220.511 56.6237 221.811 56.3578 223.001 55.8113C224.191 55.2649 225.24 54.4524 226.066 53.4366C227.833 51.3355 228.717 47.9348 228.718 43.2344V36.9307C228.718 32.7837 227.834 29.6735 226.066 27.6001C225.233 26.5947 224.182 25.7921 222.993 25.2532C221.804 24.7143 220.507 24.4532 219.202 24.4898C217.819 24.4225 216.438 24.6671 215.162 25.2055C213.886 25.7439 212.748 26.5623 211.831 27.6001C210.037 29.6734 209.14 32.7836 209.14 36.9307V43.2344C209.14 47.9351 210.037 51.3358 211.831 53.4366C212.741 54.4853 213.878 55.3138 215.154 55.8598C216.431 56.4057 217.815 56.6549 219.202 56.5884Z" fill="white"/>
        <path d="M245.487 18.5176H252.117V52.1094L271.383 18.5176H278.247V62.4771H271.617V28.8853L252.351 62.4771H245.487V18.5176Z" fill="white"/>
        <path d="M289.947 18.5176H296.108V25.8164C297.161 23.4992 298.818 21.5082 300.906 20.0523C303.125 18.6356 305.723 17.9269 308.354 18.02C310.423 17.9958 312.472 18.4203 314.36 19.2642C316.185 20.097 317.798 21.3302 319.08 22.8721C320.494 24.613 321.553 26.6136 322.2 28.7612C322.996 31.4098 323.377 34.1655 323.331 36.9307V43.2344C323.377 46.1495 322.996 49.0558 322.2 51.8604C321.565 54.1135 320.506 56.2248 319.08 58.0811C317.826 59.6828 316.208 60.9623 314.36 61.8135C312.472 62.6574 310.423 63.0819 308.354 63.0577C305.828 63.1419 303.341 62.4152 301.257 60.9839C299.357 59.6323 297.849 57.8006 296.889 55.6758V79.0655H289.947V18.5176ZM306.951 56.5884C308.26 56.6237 309.559 56.3578 310.749 55.8113C311.939 55.2649 312.988 54.4524 313.814 53.4365C315.582 51.3355 316.465 47.9347 316.466 43.2344V36.9307C316.466 32.7837 315.582 29.6735 313.814 27.6001C312.982 26.5947 311.931 25.7921 310.741 25.2532C309.552 24.7142 308.256 24.4532 306.951 24.4898C305.567 24.4225 304.187 24.6671 302.911 25.2055C301.635 25.7439 300.496 26.5623 299.58 27.6001C297.786 29.6733 296.889 32.7835 296.889 36.9307V43.2344C296.889 47.9351 297.786 51.3358 299.58 53.4365C300.49 54.4853 301.626 55.3138 302.903 55.8598C304.18 56.4057 305.564 56.6548 306.951 56.5884Z" fill="white"/>
        <path d="M333.002 72.6787C334.275 72.6992 335.546 72.5599 336.785 72.2642C337.83 71.9975 338.802 71.5016 339.632 70.8125C340.543 70.0205 341.298 69.0638 341.855 67.9927C342.617 66.5416 343.256 65.0295 343.766 63.4722L327.074 18.5176H334.796L347.198 54.1826L358.352 18.5176H365.762L350.396 63.4722C349.51 66.1279 348.441 68.7192 347.198 71.2275C346.327 73.0172 345.138 74.6333 343.688 75.9965C342.408 77.1464 340.869 77.9713 339.203 78.4018C337.172 78.8823 335.089 79.1052 333.002 79.0654L333.002 72.6787Z" fill="white"/>
        <path d="M372.938 18.5176H379.568V52.1094L398.834 18.5176H405.698V62.4771H399.068V28.8853L379.802 62.4771H372.938V18.5176ZM389.318 14.2046C385.418 14.2046 382.558 13.2785 380.738 11.4263C378.917 9.57422 378.007 6.90625 378.008 3.42236H384.326C384.326 5.52442 384.729 7.03109 385.535 7.94237C386.028 8.43093 386.623 8.80635 387.276 9.04267C387.929 9.27899 388.626 9.37055 389.318 9.31103C390.022 9.37463 390.732 9.28524 391.398 9.04901C392.064 8.81278 392.672 8.43528 393.179 7.94237C393.984 7.03026 394.387 5.52359 394.388 3.42236H400.628C400.628 6.90576 399.718 9.57374 397.898 11.4263C396.077 13.2793 393.217 14.2054 389.318 14.2046Z" fill="white"/>
        <path d="M436.897 18.5176H443.839V36.9307H449.221L462.481 18.5176H470.203L454.915 39.834L471.451 62.4771H463.339L449.299 43.2344H443.839V62.4771H436.897V18.5176Z" fill="white"/>
        <path d="M492.744 63.0576C487.543 63.0576 483.409 61.3711 480.342 57.9981C477.273 54.626 475.739 49.7048 475.74 43.2344V36.9307C475.698 34.2142 476.107 31.5096 476.949 28.9268C477.671 26.7219 478.839 24.6892 480.381 22.9551C481.87 21.32 483.71 20.0439 485.763 19.2227C490.273 17.5085 495.255 17.5085 499.764 19.2227C501.802 20.0514 503.628 21.3269 505.107 22.9551C506.648 24.6895 507.816 26.7221 508.539 28.9268C509.381 31.5097 509.79 34.2143 509.748 36.9307V43.2344C509.748 49.7041 508.214 54.6253 505.146 57.9981C502.077 61.3716 497.943 63.0581 492.744 63.0576ZM492.744 56.5884C494.136 56.6521 495.525 56.4019 496.808 55.8564C498.09 55.3108 499.234 54.4838 500.154 53.4365C501.974 51.3355 502.884 47.9348 502.884 43.2344V36.9307C502.884 32.7295 501.974 29.5917 500.154 27.5171C499.187 26.5323 498.034 25.7499 496.762 25.2159C495.49 24.6818 494.124 24.4068 492.744 24.4068C491.364 24.4068 489.998 24.6818 488.726 25.2159C487.453 25.7499 486.3 26.5323 485.334 27.5171C483.513 29.5903 482.603 32.7282 482.604 36.9307V43.2344C482.604 47.9351 483.514 51.3358 485.334 53.4365C486.254 54.4839 487.397 55.311 488.68 55.8566C489.963 56.4022 491.352 56.6523 492.744 56.5884Z" fill="white"/>
        <path d="M519.654 18.5176H526.596V36.9307H545.472V18.5176H552.414V62.4771H545.472V43.2344H526.596V62.4771H519.654V18.5176Z" fill="white"/>
        <path d="M572.771 24.9043H559.589V18.5176H592.816V24.9043H579.635V62.4771H572.771V24.9043Z" fill="white"/>
        <path d="M614.811 63.0576C612.474 63.0878 610.153 62.6507 607.986 61.772C605.963 60.9386 604.171 59.6299 602.761 57.9565C601.248 56.1211 600.109 54.008 599.407 51.7358C598.557 48.9837 598.149 46.1143 598.198 43.2344V36.9307C598.198 30.7388 599.641 26.0249 602.526 22.7891C605.413 19.5547 609.378 17.9373 614.421 17.937C619.465 17.937 623.43 19.5405 626.316 22.7476C629.203 25.9551 630.646 30.7381 630.645 37.0967V42.6538H605.061C605.113 47.686 606.01 51.2941 607.752 53.478C608.586 54.5434 609.661 55.3958 610.888 55.9653C612.115 56.5348 613.46 56.805 614.811 56.7539C617.463 56.7539 619.4 56.0905 620.622 54.7637C621.801 53.5207 622.599 51.9665 622.923 50.2847H629.865C629.033 54.5977 627.343 57.8047 624.795 59.9058C621.946 62.1069 618.408 63.224 614.811 63.0576ZM614.499 24.2407C613.208 24.1682 611.916 24.3877 610.721 24.8831C609.526 25.3785 608.458 26.137 607.597 27.1021C605.958 29.0098 605.113 32.2031 605.061 36.6821H624.171C624.066 32.2031 623.208 29.0098 621.598 27.1021C619.985 25.1943 617.619 24.2406 614.499 24.2407Z" fill="white"/>
        <path d="M640.551 18.5176H647.493V36.9307H666.369V18.5176H673.311V62.4771H666.369V43.2344H647.493V62.4771H640.551V18.5176Z" fill="white"/>
        <path d="M693.668 24.9043H680.486V18.5176H713.714V24.9043H700.532V62.4771H693.668V24.9043Z" fill="white"/>
    </g>
    <defs>
        <filter id="filter0_d_2087_1604" x="0.0649414" y="0.422363" width="730.649" height="95.6476" filterUnits="userSpaceOnUse" color-interpolation-filters="sRGB">
            <feFlood flood-opacity="0" result="BackgroundImageFix"/>
            <feColorMatrix in="SourceAlpha" type="matrix" values="0 0 0 0 0 0 0 0 0 0 0 0 0 0 0 0 0 0 127 0" result="hardAlpha"/>
            <feOffset dx="7" dy="7"/>
            <feGaussianBlur stdDeviation="5"/>
            <feColorMatrix type="matrix" values="0 0 0 0 0 0 0 0 0 0 0 0 0 0 0 0 0 0 0.25 0"/>
            <feBlend mode="normal" in2="BackgroundImageFix" result="effect1_dropShadow_2087_1604"/>
            <feBlend mode="normal" in="SourceGraphic" in2="effect1_dropShadow_2087_1604" result="shape"/>
        </filter>
    </defs>
</svg>
